HIERARCHY
ROOT Hips
{
	OFFSET 0.000000 0.000000 0.000000
	CHANNELS 6 Xposition Yposition Zposition Xrotation Yrotation Zrotation
	JOINT LeftUpLeg_virtual
	{
		OFFSET 0.000000 0.000000 0.000000
		CHANNELS 3 Xrotation Yrotation Zrotation
		JOINT LeftUpLeg
		{
			OFFSET 15.427100 -6.655098 0.678600
			CHANNELS 3 Xrotation Yrotation Zrotation
			JOINT LeftLeg
			{
				OFFSET 4.081073 -39.591068 13.024000
				CHANNELS 3 Xrotation Yrotation Zrotation
				JOINT LeftFoot
				{
					OFFSET -4.081074 -37.707932 -15.979700
					CHANNELS 3 Xrotation Yrotation Zrotation
					JOINT LeftToeBase
					{
						OFFSET 5.346399 -15.068900 20.645000
						CHANNELS 3 Xrotation Yrotation Zrotation
						JOINT LeftToe_End
						{
							OFFSET 2.754700 0.931300 11.300900
							CHANNELS 3 Xrotation Yrotation Zrotation
							End Site
							{
								OFFSET 0 0 0
							}
						}
					}
				}
			}
		}
	}
	JOINT RightUpLeg_virtual
	{
		OFFSET 0.000000 0.000000 0.000000
		CHANNELS 3 Xrotation Yrotation Zrotation
		JOINT RightUpLeg
		{
			OFFSET -15.569500 -6.655098 0.678600
			CHANNELS 3 Xrotation Yrotation Zrotation
			JOINT RightLeg
			{
				OFFSET -4.081825 -39.591045 13.023800
				CHANNELS 3 Xrotation Yrotation Zrotation
				JOINT RightFoot
				{
					OFFSET 4.081824 -37.707954 -15.979600
					CHANNELS 3 Xrotation Yrotation Zrotation
					JOINT RightToeBase
					{
						OFFSET -5.346400 -15.068900 20.645000
						CHANNELS 3 Xrotation Yrotation Zrotation
						JOINT RightToe_End
						{
							OFFSET -2.754700 0.931300 11.300900
							CHANNELS 3 Xrotation Yrotation Zrotation
							End Site
							{
								OFFSET 0 0 0
							}
						}
					}
				}
			}
		}
	}
	JOINT Spine_virtual
	{
		OFFSET 0.000000 0.000000 0.000000
		CHANNELS 3 Xrotation Yrotation Zrotation
		JOINT Spine
		{
			OFFSET -0.279200 12.230698 -2.892100
			CHANNELS 3 Xrotation Yrotation Zrotation
			JOINT Spine1
			{
				OFFSET -0.232667 10.192268 -1.242267
				CHANNELS 3 Xrotation Yrotation Zrotation
				JOINT Spine1_split
				{
					OFFSET -0.232667 10.192268 -1.242267
					CHANNELS 3 Xrotation Yrotation Zrotation
					JOINT Spine2
					{
						OFFSET -0.232667 10.192268 -1.242267
						CHANNELS 3 Xrotation Yrotation Zrotation
						JOINT Neck_virtual
						{
							OFFSET 0.000000 0.000000 0.000000
							CHANNELS 3 Xrotation Yrotation Zrotation
							JOINT Neck
							{
								OFFSET -0.418800 17.814194 8.416900
								CHANNELS 3 Xrotation Yrotation Zrotation
								JOINT Head
								{
									OFFSET 0.000000 7.031097 3.806800
									CHANNELS 3 Xrotation Yrotation Zrotation
									JOINT HeadTop_End
									{
										OFFSET 0.000000 24.646606 12.978600
										CHANNELS 3 Xrotation Yrotation Zrotation
										End Site
										{
											OFFSET 0 0 0
										}
									}
								}
							}
						}
						JOINT LeftShoulder_virtual
						{
							OFFSET 0.000000 0.000000 0.000000
							CHANNELS 3 Xrotation Yrotation Zrotation
							JOINT LeftShoulder
							{
								OFFSET 8.476499 7.247704 -3.868750
								CHANNELS 3 Xrotation Yrotation Zrotation
								JOINT LeftShoulder_split
								{
									OFFSET 8.476499 7.247704 -3.868750
									CHANNELS 3 Xrotation Yrotation Zrotation
									JOINT LeftArm
									{
										OFFSET 9.308998 -2.777710 0.208600
										CHANNELS 3 Xrotation Yrotation Zrotation
										JOINT LeftForeArm
										{
											OFFSET 29.972298 0.000000 0.000000
											CHANNELS 3 Xrotation Yrotation Zrotation
											JOINT LeftHand
											{
												OFFSET 26.026505 0.000000 0.000000
												CHANNELS 3 Xrotation Yrotation Zrotation
												End Site
												{
													OFFSET 0 0 0
												}
											}
										}
									}
								}
							}
						}
						JOINT RightShoulder_virtual
						{
							OFFSET 0.000000 0.000000 0.000000
							CHANNELS 3 Xrotation Yrotation Zrotation
							JOINT RightShoulder
							{
								OFFSET -7.570500 7.247704 -3.868750
								CHANNELS 3 Xrotation Yrotation Zrotation
								JOINT RightShoulder_split
								{
									OFFSET -7.570500 7.247704 -3.868750
									CHANNELS 3 Xrotation Yrotation Zrotation
									JOINT RightArm
									{
										OFFSET -9.308998 -2.777710 0.208500
										CHANNELS 3 Xrotation Yrotation Zrotation
										JOINT RightForeArm
										{
											OFFSET -29.972300 0.000000 0.000000
											CHANNELS 3 Xrotation Yrotation Zrotation
											JOINT RightHand
											{
												OFFSET -26.026505 0.000000 0.000000
												CHANNELS 3 Xrotation Yrotation Zrotation
												End Site
												{
													OFFSET 0 0 0
												}
											}
										}
									}
								}
							}
						}
					}
				}
			}
		}
	}
}
MOTION
Frames: 5
Frame Time: 0.03333333
5.808563 76.341682 -4.047386 0.000000 0.000000 0.000000 2.435118 -54.387980 4.390675 -37.678718 2.969996 24.000901 40.288667 -1.288112 0.903080 -4.898447 -10.571140 -19.511704 0.203461 0.182277 -0.013660 0.000000 0.000000 0.000000 0.948660 -54.936940 4.094532 -29.736878 -22.405039 -44.683364 41.485780 9.545640 -0.580972 -16.749656 -5.227466 17.723299 3.173727 1.151812 0.382769 0.000000 0.000000 0.000000 4.271047 -51.432697 5.145012 9.456851 11.311568 -1.749167 3.537894 4.708536 -1.444672 0.328628 -0.102369 -0.080718 0.000000 0.000000 0.000000 3.826709 4.862493 -1.143963 -2.836655 2.997508 3.055351 -5.045434 40.572878 -6.872574 0.000000 0.000000 0.000000 4.341362 4.741763 -1.911268 0.370834 -8.713376 -15.831777 -6.049093 2.234691 1.264703 -11.625155 -39.278328 -19.692928 -6.238255 -66.325740 -3.088677 0.000000 0.000000 0.000000 5.610198 5.251653 -1.498204 -4.870758 20.565968 -19.409683 1.847172 -5.139270 -4.305252 -32.090855 28.105212 30.056415 -127.517555 88.180597 126.701471 0.000000 0.000000 0.000000 
6.308845 76.838737 -4.195393 0.000000 0.000000 0.000000 2.271738 -55.514968 4.423334 -37.427552 4.003573 24.365286 39.388564 -1.575965 0.785554 -4.390516 -9.749771 -19.780882 0.118564 0.219927 -0.215902 0.000000 0.000000 0.000000 1.026916 -55.965184 4.078448 -30.122507 -22.256942 -43.957663 40.660451 9.265464 -0.433046 -15.372442 -4.813309 17.267266 3.638875 1.120866 0.421033 0.000000 0.000000 0.000000 3.748803 -52.418461 4.749744 11.001363 11.502121 -2.275789 3.615132 4.456122 -1.589021 0.254097 0.006395 -0.171866 0.000000 0.000000 0.000000 3.628090 4.679205 -1.172607 -2.755082 2.843567 3.444036 -8.018537 40.042305 -6.250957 0.000000 0.000000 0.000000 4.829018 4.303198 -1.881725 0.732014 -8.919522 -15.821006 -7.313461 2.496326 0.930113 -20.767854 -38.300057 -25.566479 -4.786082 -67.301706 -1.872986 0.000000 0.000000 0.000000 5.794862 5.056995 -1.279049 -1.698968 20.660858 -14.159693 1.742150 -4.541423 -4.009078 -22.504056 32.470706 25.192407 -170.230239 84.303946 169.487169 0.000000 0.000000 0.000000 
6.696619 77.479889 -4.270958 0.000000 0.000000 0.000000 2.269871 -57.482722 4.312969 -36.788843 5.527681 25.197666 38.133394 -2.087493 0.696098 -4.538247 -8.593502 -20.102070 -0.109063 0.205061 -0.300173 0.000000 0.000000 0.000000 1.129868 -57.884323 3.835938 -30.210183 -22.199559 -42.670681 38.939622 8.969586 -0.213614 -13.900734 -4.299913 16.955484 3.855075 1.046124 0.485879 0.000000 0.000000 0.000000 3.186353 -54.331740 4.114120 12.518045 11.247661 -3.004706 3.646615 4.045659 -1.813105 0.436799 -0.028000 -0.081506 0.000000 0.000000 0.000000 3.486126 4.252756 -1.363997 -2.958418 2.619031 3.785615 -10.290599 40.374450 -5.585880 0.000000 0.000000 0.000000 5.180395 3.727028 -1.922017 1.132282 -8.682117 -14.879622 -8.338429 2.638489 0.615602 -29.656777 -36.342460 -29.948170 -2.540762 -68.193449 0.019086 0.000000 0.000000 0.000000 5.792714 4.634683 -1.332811 0.712750 20.136656 -10.243248 1.911057 -3.011815 -3.200734 -14.373365 34.594150 18.544018 -174.635274 81.439091 173.737814 0.000000 0.000000 0.000000 
6.979525 78.218552 -4.258533 0.000000 0.000000 0.000000 2.216259 -60.349222 3.911851 -35.710497 7.334841 26.479907 36.823350 -2.772173 0.620887 -5.138477 -7.140118 -20.425122 -0.470675 0.140503 -0.299480 0.000000 0.000000 0.000000 1.201481 -60.639055 3.347163 -29.960058 -22.188909 -40.805428 36.384776 8.707309 0.053133 -12.661166 -3.637711 16.669586 3.965223 0.931707 0.589868 0.000000 0.000000 0.000000 2.471911 -56.993257 3.158421 13.759868 10.686754 -3.915826 3.676753 3.622923 -2.072115 0.547503 0.123003 0.048173 0.000000 0.000000 0.000000 3.423830 3.723889 -1.627532 -3.451535 2.297058 4.138797 -11.556859 41.468554 -4.857059 0.000000 0.000000 0.000000 5.365843 3.169923 -1.997460 1.472460 -8.282153 -13.110639 -9.164481 2.549086 0.414344 -36.852634 -33.640724 -31.223537 0.021568 -69.818788 2.172098 0.000000 0.000000 0.000000 5.677547 4.127992 -1.593741 2.448866 19.395142 -7.926163 1.915016 -1.265686 -1.882455 -9.732174 37.506037 12.034407 -173.422273 82.064149 172.132337 0.000000 0.000000 0.000000 
7.233719 78.987579 -4.190189 0.000000 0.000000 0.000000 2.243620 -64.138468 3.363919 -34.275863 9.252254 28.097739 35.749900 -3.493507 0.559857 -5.996474 -5.298772 -20.551570 -0.690042 0.036958 -0.341962 0.000000 0.000000 0.000000 1.187116 -64.158644 2.635251 -29.378365 -22.112444 -38.431507 33.263247 8.489544 0.362165 -11.867974 -2.761419 16.254132 4.165296 0.805229 0.723978 0.000000 0.000000 0.000000 1.602939 -60.420748 1.913814 14.532701 9.904332 -4.956206 3.751174 3.279577 -2.280176 0.918235 0.252106 0.099116 0.000000 0.000000 0.000000 3.476475 3.216826 -1.861698 -4.215066 2.095472 4.432704 -11.817268 43.366592 -4.065351 0.000000 0.000000 0.000000 5.415745 2.744251 -2.067295 1.706979 -7.875026 -10.783007 -9.559554 2.360922 0.671696 -41.175126 -30.527568 -28.886984 2.093937 -72.490369 3.929115 0.000000 0.000000 0.000000 5.516526 3.638891 -1.909433 3.488103 18.420998 -7.189540 1.257214 -0.261217 -0.024587 -9.169508 43.303365 6.869457 -165.755386 84.974377 163.920565 0.000000 0.000000 0.000000 
